<?xml version="1.0" encoding="UTF-8"?>
<svg id="_图层_2" data-name="图层_2" xmlns="http://www.w3.org/2000/svg" viewBox="0 0 244.72 290.2">
  <g id="Graphic_Elements">
    <g>
      <path d="M157.74,217.16c3.34,12.54,6.64,24.94,10.06,37.78,18.99-3.89,37.8-7.45,57.5-8.51.78,4.05,1.57,8.15,2.36,12.26-3.29-2.7-2.61-6.9-4.65-10.35-19.76,1.8-39.32,4.97-58.68,9.78-.2.51-.45,1.11-.67,1.68-.32.07-.71.27-.8.17-1.64-1.65-3.53-.92-5.28-.47-11.47,2.91-22.93,5.89-34.38,8.86-5.21,1.35-10.4,2.73-15.61,4.1.92,3.78,1.82,7.45,2.72,11.13-2.84-2.92-3.85-6.47-4.53-10.23-.81-.24-1.64-.48-2.9-.84.68-.57,1.01-1.06,1.43-1.17,7-1.91,13.99-3.82,21.02-5.63,10.54-2.72,21.1-5.35,31.65-8.04.9-.23,1.75-.64,2.35-.86-2.26-6.26-4.73-12.34-6.64-18.6-1.88-6.16-3.19-12.49-4.81-18.97-.64-.06-1.43-.29-2.18-.2-31.2,3.69-59.35-4.09-84.14-23.2-16.12-12.43-27.71-28.39-34.53-47.76-4.02-11.42-6.09-23.16-6.38-35.16-.24-10.11,1.24-20.11,3.83-29.91,3.33-12.58,8.45-24.37,15.78-35.16.52-.76.86-1.65,1.33-2.56-3.17-3.9-6.29-7.74-9.6-11.81-4.24,3.87-7.48,8.31-10.62,12.8-9.67,13.81-15.44,29.18-17.74,45.84-3.14,22.72-1.79,45.15,5.21,67.06,6.26,19.59,16.31,36.85,32.21,50.34,11.65,9.88,24.77,17.02,39.35,21.57,8.38,2.62,16.92,4.57,25.63,5.35,7.22.64,14.51.67,21.76.5,5.9-.14,11.79-1.01,17.69-1.49.98-.08,1.98.16,2.97.26.02.31.04.62.06.93-4.67.75-9.33,1.97-14.03,2.14-8.88.34-17.8.53-26.65-.07-6.66-.45-13.29-1.95-19.82-3.46-12.13-2.82-23.61-7.41-34.25-13.95-18.41-11.32-32.19-26.81-41.04-46.5-4.98-11.07-8.51-22.61-10.44-34.67C.56,129.44-.31,118.74.1,107.96c.91-23.92,6.95-46.2,21.58-65.61,2.75-3.64,5.75-7.1,8.78-10.83-2.52-2.73-5.06-5.5-7.6-8.26.25-.24.49-.48.74-.72,3.69,1.28,5.51,4.88,8.55,7.51,5.84-4.82,11.7-9.88,19.82-11.06.11,2.31-1.51,2.13-2.49,2.46-5.77,1.9-10.48,5.43-14.92,9.41-.28.25-.44.65-.83,1.27,2.86,3.76,5.76,7.58,8.94,11.75,1.36-1.63,2.64-3.1,3.85-4.62,10.57-13.29,23.5-23.59,38.96-30.68C105.27-.51,125.88-1.91,147.05,2.19c.67.13,1.27.67,2.08,1.11-1.15,1.5-2.38,1.04-3.48.78-8.31-2.01-16.76-2.3-25.26-2.03-8.13.25-16.01,1.95-23.72,4.37-15.46,4.86-28.8,13.35-40.21,24.73-9.88,9.85-17.76,21.16-23.48,34.01-4.53,10.17-7.51,20.66-9.13,31.65-1.71,11.59-1.15,23.02.81,34.53,1.67,9.8,4.84,19.03,9.26,27.84,6.29,12.53,14.84,23.33,25.6,32.41,12.12,10.23,25.73,17.62,40.95,21.96,23.06,6.59,45.89,6.11,68.52-2.25,16.45-6.08,30.77-15.35,43.05-27.8,3.07-3.11,5.78-6.58,8.46-10.2-4.66,1.92-9.14,4.16-15.05,1.38,2.19-.31,3.54-.68,4.88-.67,5.2.07,9.02-2.4,12-6.36,6.06-8.06,8.09-22.02,2.36-31.24-3.15-5.07-9.34-7.03-15.57-4.32-1.95.85-2.88,2.49-2.85,4.5.05,4.28-2.1,7.4-5.01,10.18-2.63,2.51-5.22,5.06-7.92,7.48-1.84,1.64-2.63,3.64-2.82,6.03-.25,3.16.74,4.53,3.91,4.86,2.14.22,4.32.12,6.45.41,3.02.41,5.21,2.08,6.29,4.99.18.48-.1,1.13-.2,1.95-.65-.37-1.16-.49-1.28-.76-1.52-3.77-4.65-4.45-8.22-4.52-1.73-.03-3.53-.11-5.18-.59-2.95-.85-3.94-2.36-3.93-5.34.01-3.37,1.02-6.33,3.59-8.67,2.49-2.27,4.87-4.65,7.4-6.86,2.74-2.4,4.51-5.12,4.8-8.93.36-4.67,2.42-6.47,7.02-7.52,9.39-2.14,14.94,3.68,17.11,9.77,2.2,6.15,2.35,12.38.73,18.69-.23.88-.39,1.78-.71,3.25,15.49-22.86,21.69-65.21,3.09-99.44C213.87,29.3,186.69,9.58,149.37,3.13c2.66-1.3,4.59-.92,6.48-.62,13.53,2.1,25.81,7.42,37.22,14.8,15.85,10.25,28.95,23.23,38.37,39.67,7.04,12.29,10.99,25.59,12.58,39.68,1.03,9.18.94,18.29-.31,27.4-1.96,14.3-6.77,27.63-14.18,40-11.74,19.62-28.09,34.3-48.54,44.29-6.61,3.23-13.77,5.33-20.67,7.94-.73.28-1.49.51-2.57.87ZM150.5,220.48c2.7,12.68,5.09,24.79,11.78,35.71,1.27-.3,2.38-.57,3.61-.86-3.29-12.14-6.5-23.97-9.79-36.06-2.03.44-3.68.79-5.6,1.21Z"/>
      <path d="M125.04,38.89c2.05-.1,3.3.06,4.44-.25,7.4-1.96,14.77-4.05,22.16-6.03,11.11-2.98,22.38-4.68,33.91-4.1,1.96.1,3.99.63,5.82,1.37,2.64,1.07,3.88,3.44,3.73,6.1-.13,2.49-1.98,3.18-3.85,4.11-1.48.74-2.82,1.91-3.95,3.14-1.62,1.78-3.01,3.78-4.47,5.71-2.72,3.61-3.99,7.37-2.58,12.04,1.75,5.81-.41,9.7-6.16,12.03-2.49,1.01-5.12,1.66-7.65,2.57-1.89.68-3.77,1.43-5.55,2.35-1.73.89-2.33,2.6-2.23,4.44.1,1.86,1.37,2.82,3.05,3.32,1.16.35,2.3.74,3.46,1.05,7.3,1.94,11.77,8.11,10.87,15.56-.42,3.43-1.19,6.91-2.41,10.14-1.21,3.21-.82,5.76,1.5,8.1,1.61,1.62,3.33,3.13,4.98,4.71,1.36,1.3,2.81,2.53,3.96,4,.7.89,1.18,2.15,1.27,3.28.29,3.36-2.01,4.92-4.85,3.17-1.8-1.1-3.27-2.75-4.82-4.23-3.5-3.35-6.8-6.9-10.45-10.07-4.21-3.65-9.26-5.24-14.88-5.33-4.83-.08-9.69-.29-14.48-.88-7.49-.92-13.82-4.12-18.47-10.34-3.43-4.59-7.65-8.34-13.2-10.21-4.75-1.6-9.61-2.41-14.68-1.65-9.17,1.37-18.36,2.59-27.55,3.85-.93.13-1.89.13-2.82.08-4.11-.23-6.78-2.14-7.63-5.41-.85-3.26.59-7.16,3.71-9.11,2.15-1.34,4.56-2.26,6.84-3.4,2.15-1.08,4.42-2,6.4-3.35,2.93-1.99,4.02-5.43,3.1-8.53-.61-2.04-1.72-2.71-3.62-1.78-1.92.95-3.64,2.31-5.53,3.34-1.99,1.08-4.01,2.19-6.15,2.91-2.66.89-4.93-.62-5.02-3.42-.06-1.8.29-3.81,1.09-5.41,3.22-6.51,8.34-11.1,14.97-14.09,3.74-1.69,7.61-2.11,11.36-.6,9.13,3.67,16.34,1.01,22.93-5.74,4.49-4.6,9.39-8.87,14.52-12.74,2.08-1.57,5.21-2.18,7.93-2.41,4.22-.35,5.36,1.62,3.71,5.47-.74,1.72-1.5,3.43-2.72,6.22ZM183.21,134.82c.83-3.43-1.02-4.91-2.6-6.43-2.03-1.96-4.17-3.8-6.25-5.7-3.46-3.15-4.46-6.7-2.6-11.25,1.26-3.06,2.13-6.41,2.42-9.7.58-6.59-3.48-11.59-9.9-13.16-1.8-.44-3.57-1.15-5.23-1.97-1.9-.94-2.57-2.84-2.39-4.77.25-2.61,1.19-4.99,3.97-6.07,2.13-.82,4.25-1.69,6.39-2.5,2.63-1,5.39-1.74,7.9-2.97,3.58-1.76,4.43-4.04,3.55-7.92-.75-3.31-1.62-6.83.07-9.9,3.21-5.82,6.22-11.96,12.94-14.82,2.05-.87,2.35-2.34,1.08-4.19-1.32-1.92-3.32-2.84-5.52-2.89-4.98-.1-10-.34-14.94.16-9.78.98-19.27,3.52-28.71,6.24-4.65,1.34-9.3,2.65-13.98,3.87-1.72.45-3.51.55-4.91-.91-1.53-1.61-.63-3.27,0-4.88.67-1.71,1.41-3.39,2.48-5.94-2.69.24-4.53.23-6.28.61-3.26.71-5.85,2.69-8.23,4.92-4.12,3.86-8.16,7.82-12.31,11.65-5.32,4.92-11.42,6.97-18.59,4.66-1.28-.41-2.57-.94-3.89-1.05-2.38-.21-4.97-.74-7.16-.09-7.42,2.22-12.89,7.05-16.42,13.95-.99,1.93-1.33,4.05.36,6.57,1.81-.81,3.65-1.49,5.35-2.44,2.46-1.38,4.72-3.12,7.23-4.4,3.21-1.63,5.58-.54,6.4,2.93.88,3.72.56,7.34-2.72,9.91-1.88,1.47-3.92,3.21-6.13,3.68-3.05.64-5.18,2.66-7.82,3.86-2.58,1.18-3.87,4.79-3.2,7.24.66,2.42,2.97,3.84,6.37,3.91.54.01,1.09.05,1.62-.03,4.51-.68,9-1.44,13.51-2.06,5.73-.78,11.46-1.79,17.22-2.07,6.39-.31,12.53.95,18.05,4.62,3.77,2.5,6.76,5.73,9.55,9.17,3.95,4.85,9,7.61,15.15,8.33,4,.47,8.04,1.14,12.04,1.01,10.63-.34,19.03,3.74,25.79,11.76,1.99,2.36,4.22,4.52,6.48,6.63.97.91,2.27,1.47,3.83,2.46Z"/>
      <path d="M68.62,110.31c4.03-2.89,8.4-2.95,12.9-1.9,1.57.37,3.1.89,4.62,1.41,3.17,1.08,6.35.87,9.56.23,2.23-.45,4.46-.94,6.72-1.25,4.74-.66,8.1,1.45,10.2,5.57,1.65,3.23,3.04,6.59,4.61,9.86.75,1.57,1.51,3.18,2.5,4.6,1.83,2.61,4.22,4.12,7.61,3.16,2.65-.75,4.81.15,6.37,2.3,1.51,2.07,1.28,4.45.15,6.5-1.42,2.58-3.22,4.95-4.91,7.37-.77,1.1-1.63,2.15-2.53,3.15-2.84,3.13-3.58,6.76-2.92,10.87.3,1.83.21,3.75.08,5.61-.17,2.52-1.27,4.65-3.32,6.21-2.3,1.76-3.27,4.14-3.5,6.97-.17,2.14-.48,4.29-.86,6.4-.69,3.82-3.37,6.11-7.29,6.25-5.22.18-9.39-2.03-12.73-5.9-4.42-5.12-6.61-11.33-8.44-17.7-1.11-3.87-2.05-7.82-3.47-11.58-2.26-6.01-5.74-8.08-12.16-7.77-2.42.12-4.84.32-7.26.37-10.81.22-17.81-10.59-16.17-20.24.3-1.77,1.37-3.53,2.45-5.03,2.37-3.29,4.58-6.63,5.76-10.57.7-2.33,2.47-3.45,4.78-3.76.43-.06.91.25,2.34.69-4.58,1.45-5.56,4.7-6.84,7.92-.87,2.2-2.39,4.23-3.92,6.07-3.79,4.55-3.53,9.42-1.28,14.36,2.2,4.84,5.95,7.96,11.42,8.47,2,.19,4.03-.05,6.05-.11,1.48-.05,2.96-.24,4.43-.18,6.31.23,10.32,3.07,12.37,9.16,1.76,5.22,3.05,10.59,4.76,15.82,1.77,5.39,4.06,10.51,8.43,14.46,2.78,2.51,5.94,3.55,9.6,3.33,2.93-.18,4.43-1.38,5.12-4.21.25-1.04.4-2.12.46-3.2.32-5.14,1.85-9.57,5.88-13.2,1.32-1.19,1.36-3.9,1.77-5.96.17-.87-.22-1.85-.36-2.79-.68-4.47.04-8.46,3.22-11.99,2.33-2.59,4.27-5.53,6.23-8.42.73-1.07,1.27-2.41,1.46-3.69.37-2.56-1.14-4.08-3.72-4.09-.27,0-.54.06-.8.08-6.19.45-8.82-.99-11.5-6.53-1.58-3.27-2.98-6.62-4.47-9.94-2.64-5.89-5.08-7.27-11.36-6.39-1.2.17-2.41.33-3.58.65-4.14,1.14-8.26,1.25-12.33-.18-4.28-1.5-8.59-2.14-13.1-1.27-.99.19-2.05.03-3.07.03Z"/>
      <path d="M115.85,286.44c-.09.85-.19,1.75-.41,3.75-1.24-4.5-4.5-2.44-6.8-2.97.03-.28.05-.57.08-.85,1.13-.57,2.26-1.15,3.61-1.84.31-3.39-1.54-6.91-.04-11.18,2.51,3.6.43,7.92,3.35,11.03,6.05-1.32,12.31-2.7,18.57-4.06,6.44-1.4,12.89-2.73,19.31-4.19,6.28-1.42,12.53-2.99,18.8-4.45,6.28-1.46,12.57-2.89,18.87-4.28,6.43-1.42,12.84-2.93,19.31-4.12,6.18-1.14,12.22-3.28,18.68-2.71-9.14,2.99-18.59,4.57-27.92,6.68-9.56,2.16-19.12,4.38-28.68,6.56-9.43,2.15-18.85,4.32-28.29,6.42-9.43,2.1-18.87,4.12-28.44,6.21Z"/>
      <path d="M194.68,218.29c6.06-3.97,11.87-7.78,18.08-11.85-1.42,3.02-2.85,4.36-7.78,7.58-3.02,1.97-6.04,3.94-9.19,6,1.57,2.83,3.01,5.41,4.69,8.45-2.91-.01-3-2.03-3.9-3.14-1-1.24-1.86-2.6-2.92-4.1-9.47,4.54-18.84,9.08-29.4,11.67.45-2.47,2.13-2.39,3.36-2.89,6.47-2.62,12.96-5.19,19.41-7.87,1.71-.71,3.3-1.74,5.19-2.75-1.83-3.07-3.57-5.99-5.32-8.91,3.65,1.39,4.89,4.95,7.78,7.82Z"/>
      <path d="M204.89,109.07c2.84.09,5.19,1,7.41,2.38,1.9,1.18,2.73,3.14,2.64,5.14-.05,1.03-1.25,2.54-2.26,2.89-4.07,1.4-8.28,2.55-12.58.84-1.09-.43-2.22-1.03-3.01-1.86-2.58-2.68-2.24-5.53,1.04-7.21,2.08-1.06,4.49-1.48,6.75-2.19ZM213.59,117.19c-2.15-5.41-7.5-7.28-13.13-4.9-1.4.59-3.07,1.36-2.71,2.98.27,1.21,1.6,2.36,2.73,3.14.8.56,2.05.58,3.11.63,3.39.16,6.66-.39,10-1.86Z"/>
      <path d="M42.51,75.77c-.89.43-1.87.74-2.66,1.31-1.5,1.07-3.16,2.07-4.29,3.48-1.45,1.81-.97,4.57.52,5.39,2.16,1.18,5.07.06,5.92-2.38.44-1.25.65-2.58,1.01-4.05,1.41,2.75,1.34,4.65-.13,6.59-1.5,1.99-4.05,2.88-6.47,2.26-1.96-.5-3.46-2.57-3.6-4.84-.27-4.51,4.78-9.53,9.7-7.74Z"/>
    </g>
  </g>
</svg>