<?xml version="1.0" encoding="UTF-8"?>
<svg id="_图层_2" data-name="图层_2" xmlns="http://www.w3.org/2000/svg" viewBox="0 0 184.93 181.77">
  <g id="Graphic_Elements">
    <g>
      <path d="M87.61,159.12c1.72,1.6.93,3.08-.19,4.58-.61.82-1.54,1.67-1.64,2.57-.44,4.29-3.23,5.92-6.97,6.63-.66.13-1.32.21-1.9.3-.26.28-.52.45-.59.68-2.12,6.79-9.01,8.99-14.97,7.39-3.01-.81-5.87-1.83-8.31-3.87-3.68-3.07-6-6.57-4.09-11.65-2.89-2.44-6.64-4.15-6.61-8.63.02-2.47.36-4.85,2.57-6.39-1.9-6.23-1.56-7.03,4.77-11.41.61-5.34,1.29-10.67,1.79-16.01.15-1.64.47-3.27-1.34-4.69-10.28-8.03-14.17-18.99-13.57-31.65.61-12.94,5.14-24.48,14.28-33.75,8.28-8.4,18.79-12.1,30.48-12.88,13.19-.88,24.6,3.29,34.56,11.72,7.1,6.02,12.84,13.14,15.51,22.18,4.57,15.45,1.94,29.71-7.77,42.63-6.2,8.24-14.33,13.65-24.14,16.68-1.39.43-2.68,1.17-4.04,1.77-.56,3.89-.96,7.63-1.66,11.31-.85,4.5-1.75,5.17-6.31,4.62-2.52-.3-5.01-.96-7.47-1.63-8.68-2.36-17.37-4.67-25.97-7.29-2.57-.78-4.54.17-6.46,1.15-2.42,1.25-2.05,4.76.55,6.28,1.14.67,2.46,1.15,3.76,1.43,10.35,2.27,20.6,5.16,31.27,5.58,2.01.08,4.07.1,6.04-.23,1.43-.24,2.75-1.11,4.01-1.65.18,1.85-.37,2.83-2.45,3.52-.99.33-2.03.53-3.04.79-13.18-.83-26.15-2.94-38.78-6.86-1.82-.56-2.76-.12-3.4,2.01,1.3.7,2.49,1.6,3.83,2,7.71,2.32,15.41,4.75,23.22,6.65,3.32.81,6.96.71,10.41.48,2.36-.16,4.82-1.1,4.61-4.38ZM75.63,146.21c3.9,1.02,7.75,2.2,11.69,2.99,3.2.64,3.89.07,4.44-2.95.46-2.5.92-5.04.98-7.58.09-4.05,2.28-6.11,5.91-7.09.65-.18,1.3-.36,1.93-.59,16.41-5.96,26.57-17.59,30.07-34.55,3.18-15.44-1.69-28.78-12.79-39.75-13.13-12.98-28.8-17.37-46.72-12.52-8.45,2.29-15.97,6.32-21.48,13.51-8.32,10.84-12.18,22.91-10.68,36.6,1.02,9.28,4.86,17,12.41,22.62,1.89,1.41,2.49,3,2.25,5.17-.4,3.61-.79,7.22-1.11,10.84-.2,2.25-.26,4.5-.39,6.85,3.97.98,7.58,1.88,11.11,2.75.27-.38.52-.57.56-.8,1.23-7.15,2.66-14.27,3.59-21.46.86-6.66-.19-13.13-3.46-19.15-1.15-2.12-2.2-4.33-3.02-6.6-2.49-6.9.41-10.82,7.72-10.61.4.01.81.05,1.21.11,3.81.55,7.33,2.28,11.23,2.63,1.42.13,2.82,1.5,4.04,2.52.79.66,1.26,1.72,1.69,2.35,6.92-2.83,8.73-2.01,12.59,5.18.87,0,1.8-.02,2.73,0,4.28.11,6.03,2,5.94,6.32-.1,4.4-2.99,6.81-6.43,8.55-3.1,1.57-6.37,2.98-9.71,3.88-5.61,1.52-8.45,5.38-10.06,10.54-2.07,6.65-4.12,13.31-6.26,20.23ZM73.89,87.07c-1.76-.42-3.13-.93-4.53-1.05-6.42-.55-8.52,2.16-6.29,8.23.92,2.52,2.16,4.93,3.39,7.32,2.52,4.91,3.7,10.13,3.3,15.59-.35,4.68-1.09,9.33-1.82,13.97-.63,3.94-1.5,7.85-2.33,12.08,2.9.87,5.41,1.62,8.09,2.42.46-1.27.86-2.25,1.16-3.26,1.63-5.54,3.14-11.11,4.85-16.62,1.84-5.92,4.9-10.79,11.52-12.3,1.3-.3,2.59-.74,3.8-1.3,2.67-1.24,5.34-2.5,7.92-3.93,1.88-1.04,2.75-2.9,3.07-4.99.36-2.31-.55-3.95-2.42-4.42-2.53-.65-4.11.13-5.02,2.47-.19.5-.29,1.05-.53,1.52-.88,1.73-2.26,2.28-3.56,1.44-1.34-.86-1.51-2.32-.37-3.8.41-.53.89-1.02,1.4-1.45,1.38-1.17,1.29-2.49.6-3.99-1.53-3.33-4.16-3.81-7.34-1.27.2,1.32.46,2.63.59,3.95.15,1.56-.08,3.22-1.8,3.62-1.17.27-3.06.15-3.65-.58-.75-.93-.87-2.73-.61-4.02.28-1.35,1.34-2.55,2.19-4.03-1.91-1.82-3.24-4.25-6.32-4.01,0,2.12.19,4.01-.05,5.84-.29,2.24-1.92,3.47-4.03,4.02-1.94.51-4.46-.39-5.41-1.85-1.23-1.9-.52-3.66.57-5.26.9-1.32,2.04-2.47,3.63-4.35ZM84.29,165.92c-14.07.65-26.66-4.95-39.82-8.92.23,3.67,2.77,5.26,5.48,6.31,6,2.31,12.09,4.42,18.22,6.39,2.4.77,4.98,1.1,7.5,1.31,4.54.37,7.05-1.16,8.62-5.08ZM51.03,166.55c-1.38,2.98-.44,5.38,1.64,7.64,3.27,3.57,7.49,5.14,12.09,5.66,4.27.48,8.45-2.55,9.58-6.19-7.76-2.37-15.52-4.74-23.31-7.12ZM77.19,91.58c-.14-.23-.51-1.49-1.34-1.98-.43-.25-1.75.77-2.52,1.4-.6.48-1.2,1.18-1.39,1.9-.25.91-.49,2.27-.02,2.81.54.62,1.95.89,2.84.69,1.94-.43,2.72-1.94,2.44-4.82ZM84.79,99.43c3.18-.9,3.21-1.01,1.33-3.94-.44,1.31-.79,2.33-1.33,3.94Z"/>
      <path d="M150.15,95.96c11.42-2.58,22.81-5.5,34.62-2.32.05.29.11.59.16.88-.64.24-1.34.78-1.92.66-10.18-1.97-20.08.35-30.04,1.81-.89.13-1.82.02-2.73.02-.03-.35-.07-.7-.1-1.05Z"/>
      <path d="M106.44,27.12c1.08-3.93,1.95-7.93,3.3-11.76,1.6-4.55,3.58-8.97,5.5-13.4.49-1.13,1.13-2.52,3.37-1.72-5.55,8.45-6.92,18.44-11.2,27.22-.32-.11-.65-.22-.97-.33Z"/>
      <path d="M11.13,25.84c.92.29,1.97.38,2.73.9,5.89,4.12,11.55,8.49,15.72,14.42-.18.21-.36.42-.55.63-6.04-5.02-12.08-10.05-18.12-15.07.07-.3.15-.59.22-.89Z"/>
      <path d="M152.97,143.87c-.77-.08-1.5.04-1.96-.25-2.91-1.8-15.32-15.26-16.46-17.71,2.65,1.1,16.89,14.86,18.42,17.96Z"/>
      <path d="M144.87,51.35c6.38-4.82,15.22-7.31,20.65-5.63-1.94,2.13-4.6.61-6.65,1.64-2.24,1.13-4.76,1.72-7.16,2.55-2.22.77-4.43,1.53-6.65,2.3-.06-.29-.13-.57-.19-.86Z"/>
      <path d="M20.55,81.18c-6.57,3.22-13.05,4.7-19.39,6.56-.26.08-.73-.55-1.16-.9,3.57-2.42,16.11-5.99,20.55-5.66Z"/>
      <path d="M67.35,20.62c-2.92-5.94-5.84-11.87-8.72-17.83-.1-.21.31-.66.76-1.55,4.97,5.7,6.73,12.4,8.82,18.95-.29.14-.57.29-.86.43Z"/>
    </g>
  </g>
</svg>