<?xml version="1.0" encoding="UTF-8"?>
<svg id="_图层_2" data-name="图层_2" xmlns="http://www.w3.org/2000/svg" viewBox="0 0 143.49 188.05">
  <g id="Graphic_Elements">
    <g>
      <path d="M138.23,150.31c1,.73,1.45.89,1.59,1.19,3.45,7.42,5.08,15.1,2.17,23.05-1.89,5.19-6.38,7.73-11.41,8.64-5,.9-10.31,1.3-14.72-2.26-4.4-3.55-8.07-7.67-10.15-13.11-3.25-8.53-6.66-17-10.12-25.44-7.33-17.89-14.74-35.75-22.13-53.62-1.44-3.48-2.91-6.94-4.41-10.51-1.82-.83-4.37-1.21-4.33-3.97.04-2.96.39-6.01,3.36-7.7,6.3-3.59,12.73-6.88,19.99-8.2,1.95-.35,3.75-1.46,5.68-1.97,1.64-.43,3.38-.51,4.81-.7,2.52,3.17,4.16,6.01,1.31,9.14,13.08,31.62,26.1,63.06,39.08,94.51.33.81.3,1.77.09,2.8-8.78-17.33-15.29-35.64-23.44-53.54-7.9,6.08-16.82,9.43-26.86,11.4,1.6,4.09,3.07,7.93,4.62,11.73,4.52,11.07,8.84,22.23,13.72,33.14,2,4.47,5.12,8.48,8,12.51,1.88,2.62,4.72,3.96,8.03,3.97,2.28,0,4.59.12,6.84-.21,6.77-.99,11.18-5.73,11.33-12.64.08-3.56-.7-7.16-1.27-10.72-.37-2.29-1.06-4.53-1.78-7.5ZM98.91,68.38c-9.38,3.43-18.25,6.67-27.45,10.03,5.15,12.55,10.18,24.79,15.12,36.83,1.61-1.43,3-2.87,4.59-4.04,5.06-3.72,10.72-6.06,16.93-7.05,1.65-.26,3.29-.59,5.36-.97-4.93-11.78-9.68-23.14-14.56-34.8ZM113.92,106.34c-7.74-1.87-23.27,5.19-24.84,11.03,7.61-.27,21.17-6.19,24.84-11.03ZM68.2,69.58c8.69,1.49,23.63-4.45,27.03-10.83-10.03,1.98-19.06,4.99-27.03,10.83ZM66.65,72.85c2.04,3.12,4.19,3.46,6.89,2.49,7.93-2.84,15.9-5.59,23.94-8.4-.61-2.46,3.06-4.08,1.32-7.18-8.79,9.02-19.83,12.01-32.15,13.1Z"/>
      <path d="M93.54,163.77c-.37-.98-.73-1.96-1.18-3.16.51.07.99-.01,1.17.18,4.3,4.67,6.6,10.1,5.97,16.53-.13,1.3-.47,2.68-1.1,3.82-2.68,4.88-12.08,9.71-19.45,4.94-3.68-2.38-6.53-5.39-9.08-8.96-7.74-10.83-15.77-21.45-23.67-32.16-5.11-6.92-10.18-13.87-15.28-20.8-1.25-1.7-2.38-3.33-4.68-4.12-2.8-.96-3.48-5.24-1.48-7.91,1.04-1.38,2.33-2.66,3.74-3.65,4.48-3.15,9-6.28,13.66-9.15,3.86-2.38,6.64-.47,6.78,4.13.04,1.3.85,2.73,1.67,3.84,8.38,11.36,16.83,22.67,25.26,33.99,5.68,7.63,11.37,15.25,17.05,22.87.21-.13.41-.27.62-.4ZM37.91,111.52c2.9-1.51,5.8-3.03,8.71-4.55.09-1.62.17-3,.26-4.67-2.6,2.58-4.93,4.87-7.22,7.19-.63.64-1.12,1.4-1.68,2.11-3.89,1.7-7.78,3.4-12.55,5.49,1.95.32,3.28.98,3.88.57,2.9-1.99,6.6-2.9,8.6-6.14ZM30.33,119.95c10.58,14.12,20.74,28.28,31.4,42.39,3.79-7.24,9.71-11,16.77-13.95-10.19-13.69-20.25-27.2-30.26-40.65-6.04,4.12-11.69,7.97-17.91,12.21ZM64.64,166.26c2.03,2.84,4.13,5.81,6.26,8.75.63.87,1.25,1.78,2.01,2.53,2.31,2.24,4.47,4.74,7.09,6.53,5.09,3.48,12.91,1.55,16.4-3.59,1.67-2.46,1.52-5.13,1.18-7.79-.26-2.1-1.02-4.01-3.66-4.32-.49-.06-.91-.93-1.33-1.46-1.74-2.23-3.46-4.47-5.19-6.7-1.84-2.39-3.69-4.77-5.19-6.72-6,4.36-11.61,8.43-17.57,12.75ZM64.26,162.66c5.85-2.65,11.42-5.65,14.86-11.4-6.67,1.51-11.58,5.38-14.86,11.4ZM43.12,102.22c-6.11,2.59-11.91,5.85-16.15,11.34,6.71-1.74,12.12-5.41,16.15-11.34Z"/>
      <path d="M82.04,19.83c.1,4.08-3.72,8.34-7.68,8.56-3.82.21-7.26-2.87-7.3-6.52-.04-3.86,3.82-8.63,7.09-8.76,3.58-.14,7.81,3.46,7.89,6.72ZM73.86,26.17c2.89.1,5.85-2.8,6.05-5.94.14-2.2-2.59-5.3-4.66-5.28-2.78.04-5.93,3.53-6,6.66-.06,2.56,1.86,4.46,4.6,4.56Z"/>
      <path d="M38.8.13c4.69-.52,7.49,1.45,8.08,5.2.68,4.32-2.03,8.14-6.27,8.84-4.01.66-7.39-1.84-8.08-5.97-.6-3.55,1.44-6.59,5.61-7.39-.89,1.17-1.35,2.02-2.04,2.63-2.03,1.8-1.97,5.91.56,7.89,2.03,1.59,5.45.95,7.17-1.33,1.82-2.41,1.24-6.02-1.33-7.77-.98-.67-2.06-1.17-3.69-2.08Z"/>
      <path d="M6.79,75.32c5.13-.51,7.59,1.32,7.72,5.24.13,4.06-3.17,7.35-7.38,7.37-4.3.02-7.31-2.91-7.11-6.93.16-3.28,2.06-5.07,5.36-4.81-1.11,2.03-4.12,3.13-3.08,5.99.38,1.06,1.07,2.23,1.97,2.84,2.36,1.62,6.01.64,7.38-1.75,1.75-3.05.54-5.2-4.85-7.95Z"/>
      <path d="M70.25,38.49c2.71-.02,4.54,1.3,4.59,3.31.07,2.48-2.9,5.72-5.25,5.74-2.26.02-4.36-2-4.46-4.29-.13-2.79,1.96-4.73,5.12-4.75ZM71.44,39.8c-2.06-.04-4.28,1.8-4.37,3.07-.09,1.24,1.22,2.68,2.43,2.68,1.14,0,3.23-2.23,3.11-3.68-.07-.82-.87-1.58-1.16-2.07Z"/>
      <path d="M54.25,18.94c-1.92,2.9-2.02,4.06-.65,5.03,1.38.98,3.1.42,3.98-1.3.88-1.71.47-2.47-2.09-3.74,1.44-1.68,2.67-.7,3.69.33,1.2,1.22,1.03,3.63-.16,5.2-1.46,1.92-4.17,2.76-6.03,1.87-1.6-.76-3.09-3.79-2.69-5.46.35-1.47,1.19-1.92,3.96-1.93Z"/>
      <path d="M27.38,76.19c2.73-.03,4.09,1.03,4.19,3.24.1,2.28-1.86,4.39-4.22,4.55-2.07.13-4.24-1.88-4.28-3.97-.03-2.13,1.84-3.79,4.3-3.81ZM29.19,77.87c-1,.26-2.06.38-2.97.81-.46.22-.94,1.06-.87,1.53.07.5.72,1.13,1.25,1.31,2.05.68,3.13-.79,2.6-3.66Z"/>
      <path d="M24.76,93.9c1.35.03,2.58,1.45,2.61,3.03.04,1.93-1.44,3.54-3.13,3.4-1.48-.12-2.44-1.4-2.36-3.17.08-1.85,1.36-3.3,2.88-3.27Z"/>
      <path d="M84.45,43.04c-.74-.51-1.58-1.09-2.29-1.57-1.11.4-2.12.76-3.13,1.12.59-2.08,1.86-3.6.38-5.73,2.35.72,4.36,1.97,6.63.06-.59,2.29-1.07,4.12-1.58,6.12Z"/>
      <path d="M17.3,62.7c0,2.16-1.45,3.68-3.43,3.6-1.65-.06-3.07-1.54-3.02-3.12.06-1.9,1.45-3.1,3.5-3.02,1.92.08,2.95.96,2.95,2.53ZM15.49,62.41c-1.72,0-2.86.41-1.49,2.26.59-.9,1.04-1.58,1.49-2.26Z"/>
      <path d="M77.31,55.82c-1.15,1.27-1.76,2.44-2.7,2.82-.73.29-2.31-.12-2.71-.74-.54-.85-.66-2.3-.33-3.28.38-1.14,1.58-1.25,2.68-.55.76.48,1.57.9,3.06,1.74Z"/>
      <path d="M53.85,37.48c.29-1.58.52-2.85.79-4.32,1.44.67,2.69,1.25,4.11,1.91-.42,1.13-.86,2.29-1.39,3.72-1.12-.42-2.15-.81-3.51-1.31Z"/>
      <path d="M64.3,0c-2.31,1.85-4.71,3.52-8.6,3.05C58.34.17,61.3.05,64.3,0Z"/>
    </g>
  </g>
</svg>