<?xml version="1.0" encoding="UTF-8"?>
<svg id="_图层_2" data-name="图层_2" xmlns="http://www.w3.org/2000/svg" viewBox="0 0 158.27 155.65">
  <g id="Graphic_Elements">
    <path d="M.01,81.44c0-18.5,4.74-32.78,12.99-46.17,8.48-13.76,20.88-22.1,35.71-27.47,6.98-2.53,14.15-4.28,21.46-5.47,4.5-.73,9-1.48,13.52-2.04,7.5-.93,14.76.48,21.8,2.86,17.77,6,30.74,17.94,40.48,33.6,6.8,10.93,10.15,21.84,11.48,31.34,3.08,21.96-2.55,41.52-16.24,58.93-10.99,13.98-25,23.13-42.36,26.92-8.04,1.76-16.18,2.1-24.47,1.32-11.75-1.11-22.63-4.64-33.01-9.96-14.79-7.57-26.63-18.25-33.87-33.43C2.5,101.43-.19,90.39.01,81.44ZM123.8,126.54c-.56-.84-1.12-1.68-1.69-2.51-.22.22-.44.44-.67.66.82.58,1.64,1.17,2.46,1.75-.17,1.89.9,2.93,2.96,4.34-.71-2.36-1.82-3.35-3.07-4.24ZM83.02,54.7c-.51,1.32-.91,2.63.72,3.88-.28-1.48-.5-2.68-.72-3.88-1.37-3.05-3.14-6-2.45-9.64,2.95,3.94,3.37,8.95,5.86,13.73,1.36-5.72,2.58-10.87,3.84-16.14-2.62-1.73-5.1-3.37-7.96-5.25-.33,4.54,5,6.38,3.51,11.27-1.21-1.21-2.4-1.95-2.93-3.02-1.18-2.4-2.37-4.89-2.92-7.48-.67-3.13-2.62-4.44-5-5.43,1.69,6.02,3.34,11.91,5.03,17.79.33,1.16.78,2.31,1.39,3.34.26.44,1.08.56,1.64.84ZM43.33,101.1c3.65,5.03,7.2,9.9,10.72,14.79,2.04,2.84,4.09,5.67,6.05,8.57,1.33,1.98,2.87,2.91,5.41,2.44,2.23-.41,4.56-.23,6.85-.29,6.59-.17,13.19-.36,19.78-.49,1.86-.04,3.14-.5,4.26-2.29,4.21-6.76,7.82-13.76,9.91-21.36-6.75-10.28-13.5-20.58-20.52-31.27-3.74,3.19-8.53,1.62-13.06,1.77-3.98.13-7.98-.35-11.97-.55-1.5-.08-2.51.56-3.23,1.92-4.76,9.02-9.56,18.01-14.21,26.76ZM107.78,100.33c2.3-.47,4.12-.99,5.96-1.18,1.87-.19,3.76-.05,5.65-.06,3.22-.03,6.45-.03,9.67-.12,3.48-.09,3.95-.37,4.78-3.65,2.34-9.24,4.6-18.5,6.81-27.77.19-.81.17-1.97-.29-2.58-4.74-6.35-9.34-12.84-14.53-18.82-2.44-2.81-4.2-5.4-3.82-9.16.02-.17-.28-.37-.51-.66-8.57,2.01-17.17,4.13-25.83,5.99-2.53.54-3.78,1.93-4.24,4.18-1.37,6.7-2.68,13.41-3.87,20.14-.19,1.08.06,2.45.61,3.41,2.98,5.25,5.97,10.52,9.25,15.58,3.27,5.04,6.91,9.85,10.35,14.71ZM6.79,71.24c4.92,8.28,9.84,16.44,14.6,24.69.94,1.63,1.98,2.37,3.81,2.25,4.21-.28,8.29.45,12.33,1.56,1.13.31,2.35.31,3.85.5,4.48-8.31,8.95-16.55,13.34-24.83.31-.59.27-1.54.04-2.2-1.33-3.93-2.71-7.84-4.19-11.71-2.09-5.48-4.29-10.93-6.51-16.58-7.54-1.46-15.3-.7-23.17-.78-4.65,8.95-9.21,17.73-14.1,27.12ZM61.24,10.92c1.35,3.54,2.75,7.3,4.2,11.04.99,2.54,2.15,4.87,5.33,5.34.85.13,1.62.92,2.4,1.44,5.26,3.52,10.56,6.97,15.73,10.6,1.91,1.34,3.66,1.85,5.97,1.22,4.53-1.23,9.15-2.16,13.71-3.27,4.41-1.07,8.81-2.21,13.43-3.38-.3-3.51,1.57-6.86-.64-10.65,1.12-.14,2.24-.66,2.9-.31,3.52,1.9,6.96,3.96,10.36,6.07,1.22.76,2.32,1.52,4.02.96-4.28-5.98-9.2-10.95-14.96-14.92-9.51-6.54-19.18-12.75-31.65-11.5-3.85.39-7.79-.24-11.68-.29-1.18-.02-2.47.1-3.53.56-5.01,2.18-9.96,4.51-15.59,7.08ZM131.64,134.43c-.19-.2-.38-.4-.58-.6-.45.24-.92.46-1.34.74-2.3,1.54-4.41,3.32-7.28,3.96-1.74.39-3.56,1.23-4.91,2.37-1.52,1.28-3.26,1.93-4.66.78-4.46-3.67-8.92-7.33-13.3-11.09-1.92-1.65-3.88-2.59-6.53-2.47-8.07.36-16.14.72-24.21.65-5.58-.05-9.8,1.75-14.02,5.57-3.96,3.58-5.58,6.71-2.92,11.48.06.11.03.3.11.38.9.9,1.66,2.19,2.75,2.61,8.1,3.12,16.57,4.59,25.2,4.92,12.17.46,23.8-2.04,34.74-7.42,6.27-3.08,11.97-6.99,16.96-11.88ZM58.66,10.07c-5.1.61-10.62-.09-15.78,2.28-1.83.84-3.63,1.76-5.42,2.69-6.77,3.52-12.76,8.01-17.35,14.17-.76,1.02-1.56,2.32-1.62,3.52-.2,3.96-.08,7.95-.08,11.92,1.34-2.37,1.33-2.54,3.55-2.6,4.84-.13,9.69-.12,14.54-.04,3.22.05,6.72,1.21,9.57.27,3-.99,5.37-3.87,8-5.96,3.76-2.98,7.51-5.98,11.27-8.98-2.24-5.8-4.37-11.28-6.68-17.27ZM149.3,47.84c-.32-.02-.63-.05-.95-.07-1.44,5.23-2.95,10.44-4.31,15.69-2.33,8.97-4.41,18.01-6.92,26.93-1.3,4.62-1.57,8.88-.29,13.66,2.05,7.64,2.96,15.53-1.49,23.78,1.69-.55,3.06-.57,3.61-1.25,5.53-6.82,10.13-14.2,12.9-22.54-5.01-7.5-7.33-15.1-1.84-23.27.97-1.45,1.93-2.91,2.96-4.32.39-.53.97-.93,1.71-1.62-.18,1.61-.8,3.03-.34,3.79,1.27,2.1.73,4,.29,6.1-.73,3.53-1.23,7.12-1.83,10.68-.09.52,0,1.37-.28,1.51-2.76,1.39-1.04,2.51.38,4.42,5.59-18.84,4.06-36.39-3.62-53.49ZM15.79,35.58C-4.69,63.29-.94,105.87,19.67,125.62c4.28-2.49,4.26-2.61,3.48-7.3-.66-3.97-1.02-7.99-1.67-11.96-.54-3.28-.58-6.91-2.1-9.72-4.78-8.84-10.15-17.36-15.34-26.07,2.33-2.05,3.64-3.99,2.18-6.82-.35-.68.07-1.86.34-2.75,1.28-4.24,2.46-8.52,4.03-12.65.94-2.48,2.2-4.97,3.89-6.97,1.47-1.75,2.06-3.3,1.31-5.8ZM49.96,147.06c-1.22-5.67-2.02-6.85-5.65-8.95-.93-.54-1.86-1.08-2.76-1.66-5.72-3.73-11.44-7.46-17.37-11.34-.9.72-2.03,1.61-3.3,2.63,8.33,8.51,17.87,14.57,29.08,19.33ZM78.05,67.93c-.27-.94-.47-1.92-.81-2.84-3.42-9.03-6.86-18.04-10.32-27.06-.89-2.32-2.24-4.59-.21-7.01.15-.18-.13-.72-.3-1.57-1.45,1.08-2.69,1.99-3.75,2.78,2.28,6.02,4.43,11.77,6.63,17.5,2.1,5.51,4.21,11.01,6.4,16.48.33.82.31,2.37,2.36,1.72ZM128.6,129c1.82-1.84,3.26-3.3,4.83-4.9-1.25-1.13-2.36-2.74-2.96-2.57-2.38.67-3.17-1.02-4.19-2.3-3.76-4.72-7.42-9.52-11.15-14.27-.62-.79-1.37-1.47-2.1-2.24-1.44,1.79-.22,2.8.59,3.78,3.7,4.42,7.46,8.78,11.18,13.18.88,1.05,1.68,2.17,2.69,3.49-1.25.33-1.87.5-2.72.72,1.26,1.68,2.29,3.06,3.82,5.11ZM105.99,116.22c-.67.99-2,1.45-.39,2.63,1.25.91,2.34,2.15,3.24,3.43,2.46,3.48,4.76,7.08,7.16,10.6.65.96,1.44,1.83,2.28,2.89,1.18-.82,2.14-1.49,3.31-2.31-4.67-6.38-8.93-12.81-15.61-17.24ZM51.17,133.87c-7.32-10.21-18.45-16.18-26.55-25.66-1.06,2.21.27,3.22,1.32,4.16,7.54,6.7,15.11,13.36,22.71,19.99.73.63,1.67,1.01,2.52,1.51ZM55.56,68.9c.53-1.44.93-1.95.82-2.32-2.02-6.84-4.06-13.67-6.24-20.45-.18-.55-1.41-.76-2.15-1.14-.3.76-.69,1.5-.87,2.28-.07.31.3.72.45,1.1,1.83,4.62,3.68,9.23,5.49,13.86.75,1.91,1.44,3.84,2.49,6.66ZM68.97,29.18c1.91,9.14,5.91,17.39,9.92,25.65-.55-2.42-1.45-4.72-2.27-7.05-.39-1.11-1.21-2.53-.84-3.36.76-1.71-.1-2.87-.64-4.15-1.13-2.7-3.08-5.26-3.39-8.03-.24-2.15-1.14-2.58-2.79-3.06ZM61.63,62.46c.46-1.12,1.49-2.37,1.28-3.34-.94-4.32-2.22-8.56-3.42-12.83-.45-1.63-1.54-1.52-3.02-.97.56,5.99,2.68,11.43,5.15,17.13ZM145.22,48.94c2.24-3.23,2.46-6.07.23-9.08-1.59-2.15-2.86-4.52-4.36-6.73-.37-.55-1.11-.84-1.68-1.25-.2.13-.4.26-.59.4,2.08,5.41,4.15,10.82,6.4,16.67ZM49.04,136.6c-2.52-2.36-5.02-4.73-7.56-7.07-3.07-2.83-6.14-5.66-9.25-8.44-.84-.76-1.79-1.65-3.18-.18.85.81,1.6,1.54,2.36,2.24,4.87,4.44,9.75,8.87,14.6,13.32.89.81,1.65,2.01,3.02.13ZM8.63,60c.28.16.56.31.84.47,1.88-3.21,3.76-6.42,5.64-9.63,1.92-3.28,1.95-4.16-.01-8.94-2.29,6.41-4.37,12.25-6.46,18.1ZM36.16,113.16c-3.15-3.16-6.25-6.43-9.57-9.48-.74-.68-2.22-.55-3.68-.86.36,1.17.47,2.29.76,2.35,2.6.46,3.37,2.86,4.95,4.39,1.43,1.39,2.89,2.76,4.38,4.1,1.04.93,2.11,1.14,3.16-.5ZM40.51,107.94c-.28.27-.56.54-.84.81,5.72,6.65,11.43,13.31,17.35,20.19.43-.81.72-1.37.92-1.75-2.95-3.36-5.71-6.62-8.61-9.76-2.92-3.17-5.35-6.85-8.82-9.49ZM62.07,36.54c-.28.09-.55.18-.83.27.63,1.72,1.28,3.42,1.9,5.15,2.64,7.46,5.23,14.93,7.94,22.36.52,1.42.63,3.31,3.13,4.22-4.2-11.07-8.17-21.53-12.15-31.99ZM122.17,105.01c3.37,4.86,6.55,9.45,9.73,14.04.25-.09.5-.19.76-.28-.29-1.18-.35-2.47-.91-3.51-1.67-3.08-3.56-6.03-5.3-9.07-.9-1.58-2.16-1.85-4.28-1.19ZM37.15,114.4c.24,2.61,1.46,3.9,2.91,5.14,4.38,3.74,9.19,7.07,12.13,12.26.15.27,1.02.13,2.55.28-5.99-6.41-10.9-12.5-17.59-17.68ZM115.52,121.75c.14-.11.28-.21.43-.32-2.14-3.93-4.28-7.85-6.73-12.35-1.09,1.94-1.83,3.25-2.57,4.56,3.1,2.83,5.99,5.47,8.88,8.11ZM49.49,114.26c-5.68-10.17-7.82-12.01-13.25-12.18.29,1.95,1.92,2.96,3.23,3.14,2.45.35,3.64,1.99,5.05,3.54,1.67,1.83,3.31,3.67,4.97,5.5ZM134.48,103.99c-1.74,2.87-1.07,11.96,1.24,16.77.95-5.98.51-11.93-1.24-16.77ZM69.13,68.94c.41-.17.82-.34,1.23-.51-2.47-6.83-4.94-13.65-7.41-20.48,1.2,7.3,2.59,14.52,6.18,20.99ZM132,34.63c.99,5.48.21,11.31,3.59,16.29.32-1.15.23-2.26.09-3.35-.22-1.72-.83-3.47-.64-5.13.37-3.21-1.48-5.39-3.03-7.8ZM53.67,45.31c-.27.04-.54.08-.8.12-.09.45-.37.97-.25,1.35,1.97,6.38,4,12.75,6.04,19.12,0,.02.44-.09.9-.19-1.96-6.82-3.92-13.61-5.88-20.4ZM143.49,56.77c-.7-4.73-2.72-8.17-5.72-11.15.12,2.18.66,4.24.86,6.33.26,2.64,1.6,4.1,4.86,4.82ZM150.09,95.78c1.16-5.33,2.24-10.28,3.32-15.24-3.52,4.49-6.51,9.08-3.32,15.24ZM103.6,122.67c2.17.4,2.05,3.5,5.09,2.98-1.39-1.97-2.58-3.66-3.73-5.29-1.4-.17-2.66-.33-3.88-.48-.74,2.9-.45,3.48,3.05,5.99-.2-1.21-.36-2.15-.53-3.2ZM38.1,111.9c-.93-3.49-2.13-6.68-5.7-8.07-1.23-.48-2.3-.88-2.5-2.66-.13-1.22-1.47-1.07-2.92-.09,3.83,3.73,7.47,7.27,11.11,10.81ZM135.5,33.21c.03,4.74,2.56,8.24,5.45,11.57-1.15-4.17-2.01-8.47-5.45-11.57ZM115.03,138.6c.53-3.82-3.53-9.6-6.73-10.2,2.19,3.32,4.19,6.35,6.73,10.2ZM55.5,37.97c-1.98,1.54-3.61,2.81-5.44,4.23,2.12,1.73,3.27.29,4.36-.91q1.55,1.81,3.9,1.98c-.96-1.81-1.8-3.38-2.83-5.3ZM124.03,112.74c.17-.17.34-.33.51-.5-2.28-3.4-4.55-6.8-6.85-10.18-.72-1.06-1.57-1.13-2.63-.2,3.06,3.72,6.01,7.3,8.97,10.88ZM128.86,34.57c-1.29,3.23-.24,8.67,2.34,10.86-.75-3.88-.49-7.43-2.34-10.86ZM66.71,69.28c-1.02-2.51-1.72-4.25-2.52-6.23-1.77,1.69-2.69,3.4-1.54,5.17.47.72,2.2.62,4.05,1.06ZM27.52,122.66c-.23.26-.46.53-.69.79,2.01,2.74,4.92,4.32,7.7,6.06.18-.22.35-.44.53-.66-2.51-2.06-5.02-4.13-7.53-6.19ZM124.53,32.73c.3.03.6.06.9.09.13-.98.05-2.06.44-2.91.41-.89,1.27-1.58,2.15-2.59-1.17-.46-2.19-.85-3.48-1.36v6.78ZM139.02,57.47c-.69,2.87.96,4.14,2.86,6.13.34-1.94.55-3.19.79-4.55-1.29-.56-2.34-1.02-3.65-1.59ZM29.97,119c-1.78-1.61-3.04-2.75-4.29-3.88-.23.14-.46.27-.69.41.15,1.35.29,2.69.47,4.32,1.53-.29,2.62-.49,4.52-.85ZM80.64,58.07c-.22.11-.44.22-.67.33.87,1.81,1.74,3.62,2.62,5.43.3-.15.6-.3.9-.45-.95-1.77-1.9-3.54-2.84-5.31ZM124.67,41.14c2.73-2.24,1.3-3.8,0-5.39v5.39ZM130.88,102.74c-1.03-2.18-1.89-2.3-5.19-.55,1.55.32,2.81.62,4.08.82.34.05.72-.17,1.1-.27ZM128.13,104.8c.8,1.37,1.22,2.2,1.76,2.95.14.2.62.17,1.17.3-.09-1.25-.16-2.27-.25-3.48-.86.07-1.49.13-2.68.22ZM56.86,36.69c1.11,1.13,1.93,1.96,3.3,3.34-.65-1.87-1.06-3.04-1.57-4.48-.77.5-1.17.77-1.73,1.14ZM103.72,131.17q-1.25-2.61-3.24-2.31c1.07.77,1.97,1.4,3.24,2.31ZM79.04,61.46c-.2.07-.4.14-.59.2.32.94.64,1.88.96,2.82.21-.07.42-.14.63-.21-.33-.94-.67-1.87-1-2.81ZM118.79,120.19c.14-.11.27-.22.41-.33-.35-.4-.69-.79-1.04-1.19-.1.08-.21.17-.31.25.31.42.62.85.94,1.27ZM119.7,101.54c.04.25.07.5.11.75.75.06,1.51.17,2.26.15.48-.01.95-.23,1.43-.36-.01-.18-.03-.37-.04-.55h-3.76Z"/>
  </g>
</svg>