<?xml version="1.0" encoding="UTF-8"?>
<svg id="_图层_2" data-name="图层_2" xmlns="http://www.w3.org/2000/svg" viewBox="0 0 170.3 153.28">
  <g id="Graphic_Elements">
    <g>
      <path d="M22.54,32.91c3.02-.65,4.92-1.2,6.85-1.43,1.73-.2,3.5,0,5.25-.07,4.55-.2,6.02-1.88,5.39-6.44-.35-2.52-1.2-4.97-1.57-7.49-.25-1.69-.38-3.52,0-5.14.71-2.96,3.02-3.97,5.89-2.79,1.36.56,2.61,1.37,3.9,2.1,1.52.87,2.95,1.93,4.53,2.63,3.91,1.74,5.61,1.06,7.24-2.88.71-1.73,1.21-3.56,1.65-5.39.61-2.57,1.37-5.16,4.23-5.86,3.09-.75,4.98,1.4,6.65,3.62,1.37,1.82,2.57,3.8,4.09,5.48,2.45,2.7,5.53,2.63,7.98-.1,1.16-1.29,2.07-2.82,3.17-4.17,1.11-1.34,2.17-2.78,3.52-3.85,2.59-2.06,5.43-1.24,6.28,1.91.62,2.31.84,4.77.89,7.17.17,7.21,1.72,8.45,8.89,7.07,2.1-.41,4.27-.59,6.41-.64,4-.09,6.03,2.39,5.06,6.25-.39,1.54-1.2,2.98-1.87,4.44-.51,1.1-1.13,2.15-1.65,3.24-1.58,3.32-.94,4.63,2.77,5.2,2.12.33,4.3.31,6.44.5,1.07.09,2.15.18,3.18.44,3.12.78,4.56,3.19,3.14,6.06-.9,1.83-2.5,3.47-4.13,4.75-5.36,4.23-5.45,5.53-.3,10.27,1.78,1.64,3.42,3.43,5.22,5.04,1.63,1.45,2.71,3.14,2.1,5.31-.68,2.38-2.54,3.79-4.9,4.32-1.7.38-3.48.36-5.21.63-1.52.24-3.01.63-5.04,1.07,1.36,3.65,2.69,6.72,3.63,9.9.64,2.14,1.06,4.44,1.01,6.66-.07,3.07-2.16,4.99-5.23,4.93-2.53-.05-5.07-.5-7.57-.98-3.69-.71-5.36.33-5.81,4.1-.22,1.86-.08,3.77-.17,5.65-.25,4.89-4.05,7.3-8.33,5.09-2.49-1.29-4.7-3.11-7.08-4.62-4.24-2.67-5.4-2.38-8.1,1.88-1.44,2.27-2.76,4.52-5.45,5.72-2.48,1.11-4.53.69-6.24-1.09-1.67-1.73-3.05-3.74-4.52-5.66-2.59-3.38-3.4-3.57-7.03-1.48-2.35,1.35-4.7,2.62-7.57,2.35-3.11-.29-4.78-1.44-5.42-4.45-.5-2.35-.69-4.78-.81-7.18-.28-5.44-1.83-6.89-7.26-6.53-1.61.1-3.23.39-4.82.24-3.36-.33-4.79-2.2-4.02-5.54.41-1.78,1.35-3.49,2.32-5.07,2.79-4.55,2.49-6.33-1.94-9.31-1.11-.74-2.37-1.25-3.52-1.93-1.5-.89-3.09-1.69-4.41-2.81-2.24-1.9-2.13-3.84.22-5.7,1.15-.92,2.47-1.64,3.73-2.42,1.14-.7,2.34-1.32,3.47-2.04,4.99-3.15,5.46-5.77,1.89-10.56-1.04-1.4-2.3-2.65-3.28-4.09-1.17-1.73-2.15-3.58-3.76-6.32ZM129.3,41.79c-1.43-2.49-3.4-2.83-5.45-2.98-2.15-.16-4.34-.02-6.43-.43-5.07-.98-6.47-4.29-4.01-8.82,1.15-2.12,2.47-4.22,3.19-6.5,1.06-3.31-.53-4.95-3.9-4.44-2.26.34-4.51.76-6.77,1.12-6.13.98-9.13-1.47-9.45-7.77-.08-1.61.19-3.28-.13-4.84-.33-1.62-.74-3.96-1.86-4.54-2.05-1.05-3.19,1.33-4.36,2.7-1.57,1.83-2.81,3.96-4.48,5.68-3.36,3.46-7.72,3.2-10.85-.52-1.21-1.44-2.21-3.05-3.36-4.54-.82-1.06-1.61-2.2-2.64-3.02-1.7-1.36-3.29-.92-4.22,1.09-.5,1.09-.71,2.31-1.08,3.46-.67,2.04-1.17,4.17-2.1,6.08-1.6,3.31-4.15,4.44-7.67,3.25-2.26-.76-4.31-2.14-6.45-3.24-1.75-.89-3.5-1.77-5.07-2.56-2.3,1.73-2.48,3.64-1.95,5.73.63,2.47,1.43,4.9,1.91,7.4,1.09,5.67-1.25,8.84-6.95,9.42-2.14.22-4.31.06-6.47.19-.86.05-1.69.43-2.99.78.87,1.36,1.43,2.4,2.13,3.33,1.37,1.83,2.97,3.51,4.21,5.42,3,4.66,2.33,8.24-2.09,11.52-1.51,1.12-3.25,1.91-4.8,2.97-1.46,1-2.81,2.17-4.87,3.78,2.02.69,3.12,1.04,4.2,1.44,2.63.96,5.41,1.66,7.85,2.97,3.97,2.14,4.69,5.69,2.33,9.57-.7,1.15-1.59,2.18-2.24,3.35-1.37,2.47-.79,4.09,1.89,4.98,1.51.5,3.13.75,4.72.95,6.03.74,8.04,2.88,8.18,8.86.01.54,0,1.08.01,1.62.18,6.52,1.23,7.3,7.52,5.57,6.01-1.65,8.89-.63,12.49,4.41,1.01,1.42,1.96,2.92,3.17,4.16,1.73,1.78,3.53,1.79,5.32.07,1.05-1.01,1.97-2.23,2.7-3.5,3.81-6.61,9.26-6.28,14.01-1.87,1.18,1.09,2.48,2.11,3.89,2.88,2.34,1.28,3.88.5,4.35-2.11.33-1.85.49-3.74.65-5.62.44-5.24,2.1-7.01,7.23-7.23,2.82-.12,5.65.15,8.48.11,4.08-.06,4.77-1.23,3.06-5.03-.38-.85-.93-1.62-1.38-2.44-.85-1.52-1.66-3.07-2.55-4.58-2.63-4.45,2.25-12.18,7.7-10.81.64.16,1.34.16,2.01.13,1.81-.09,4.12.65,4.87-1.74.72-2.29-1.04-3.7-2.67-4.95-2.03-1.56-4.2-2.95-6.11-4.64-2.79-2.47-3.04-5.69-.72-8.62.98-1.25,2.35-2.18,3.51-3.3,1.52-1.45,3-2.94,4.45-4.38ZM33.48,86.44c-1.54-1.32-2.43-2.08-3.91-3.35.14,2.83,1.18,3.4,3.91,3.35Z"/>
      <path d="M169.92,114.1c-8.97-1.14-17.93-1.49-27.44.3-.75,8.61.94,17.32.63,26.5-2.02-1.62-4.1-2.89-5.67-4.63-7.08-7.79-14.98-14.67-23.04-21.39-2.19-1.83-3.88-4.41-5.37-6.9-1.64-2.74-.83-4.62,2.32-5.41,2.29-.57,4.76-.63,7.14-.59,2.13.04,4.25.58,6.39.81,4.3.46,6.63-1.3,6.35-5.63-.29-4.39-1.42-8.73-2.15-13.09-.21-1.26-.34-2.53-.09-4.07,7.48,4.92,13.9,10.95,20.74,16.43,6.88,5.51,13.71,11.1,20.56,16.65-.12.34-.25.68-.37,1.01ZM140.26,112.74c7.73-1.93,15.23-1.51,23.67-1.58-1.96-2-3.12-3.42-4.51-4.56-8.95-7.32-17.96-14.59-26.96-21.85-.21-.17-.63-.1-1.2-.17.23,1.02.44,1.78.58,2.55.58,3.17,1.44,6.32,1.63,9.51.33,5.64-2.76,8.58-8.36,8.27-2.28-.13-4.53-.65-6.8-.89-2.77-.3-5.58-.6-8.27,1.95,1.51,1.87,2.7,3.85,4.35,5.29,6.57,5.76,13.28,11.36,19.95,17.01,1.99,1.68,4.01,3.31,6.63,5.47-.27-4.28-.57-7.61-.67-10.94-.11-3.33-.02-6.67-.02-10.05Z"/>
      <path d="M23.77,129.27c-4.36,0-8.24-.08-12.13.02-3.75.1-7.56-.85-11.64.97.53-3.12,2.44-4.83,4.12-6.6,1.84-1.94,4.09-3.52,5.89-5.49,4.44-4.85,8.68-9.89,13.1-14.76,2.88-3.18,5.82-6.33,8.96-9.25,2.46-2.29,4.15-2.4,7.01-1.18-1.43,4.77-1.2,9.66-.45,14.56.84,5.45,2.81,6.95,8.21,5.96,3.03-.56,6.02-1.34,9.04-1.98,1.13-.24,2.29-.35,3.36-.51,1.01,2-.1,3.18-.96,4.29-3.79,4.87-7.57,9.76-11.51,14.51-5.4,6.51-10.96,12.89-16.43,19.34-1.21,1.42-2.36,2.9-3.97,4.13-3.21-7.82-2.19-15.73-2.59-24.01ZM27.1,148.72c4.63-3.24,27.53-31.05,28.53-34.62-3.21.55-6.34,1.27-9.51,1.59-6.28.63-8.95-1.67-9.54-8.06-.28-3.07-.34-6.16-.55-9.24-.06-.83-.31-1.65-.49-2.56-.58.26-.89.31-1.05.49-8.27,8.83-16.55,17.66-24.76,26.55-1,1.09-1.63,2.53-2.92,4.57h19.08c.71,7.35-.72,14.39,1.2,21.3Z"/>
      <path d="M72.51,27.44c1.75-.22,3.32-.54,4.9-.6,1.43-.05,2.87.18,4.66.31,1.46,6.58,1.19,13.72,1.9,20.77.68,6.81,1.38,13.62,2.13,20.42.08.76.55,1.47.81,2.13,2.54.17,4.94.15,7.27.53,3.61.58,6.15,4.62,5.17,8.12-.17.63-.97,1.2-1.61,1.54-.56.3-1.31.31-1.98.31-10.45.02-20.9.01-31.81.01-.74-2.39-1.5-4.85-2.32-7.48,4.31-3.17,9.24-1.03,14.3-2.05.51-12.17-2.11-24.34-1.93-36.81-.74,1.04-1.49,2.06-2.22,3.11-2.28,3.25-5.49,5.09-9.26,5.99-.61.14-1.35-.3-2.96-.71,3.95-2,7.48-2.81,9.88-5.72,2.37-2.89,3.04-6.14,3.05-9.87ZM78.8,30.4c-.05.52-.14,1.03-.15,1.55-.07,5.93-.19,11.86-.17,17.78.02,6.33.15,12.67.28,19,.03,1.38-.02,2.9,2.22,4.01-.92-14.39.22-28.32-2.18-42.34ZM65.22,78.52c6.18,1.1,16.56.81,18.66-.45-5.05-1.84-5.16-1.83-12.46-.08-.57.14-1.27-.26-1.91-.41-.03-.28-.06-.56-.09-.85,1.82-.71,3.63-1.42,5.45-2.13-.04-.17-.08-.35-.12-.52h-9.52v4.44ZM95.23,77.6c-2.58-.82-4.53-1.44-6.47-2.06.69.91,1.92,1.11,2.37,1.81,1.65,2.57,3.79,1.6,5.9,1.34.19-3.97.12-4.09-3.04-5.11.38,1.23.69,2.26,1.23,4.03ZM83.29,66.43c-.25,1.76-.96,3.66.31,5.95,1.46-2.41.27-4.15-.31-5.95Z"/>
    </g>
  </g>
</svg>