<?xml version="1.0" encoding="UTF-8"?>
<svg id="_图层_2" data-name="图层_2" xmlns="http://www.w3.org/2000/svg" viewBox="0 0 130.51 142.93">
  <g id="Graphic_Elements">
    <g>
      <path d="M2.26,15.28c-.63.16-1.26.31-2.26.56.24-.69.28-1.33.62-1.69,2.41-2.52,4.73-5.15,7.38-7.38,1.23-1.04,3.1-1.67,4.74-1.8,8.32-.66,16.64-1.26,24.98-1.59,17.89-.71,35.79-1.29,53.68-1.81,7.27-.21,14.55-.06,21.83-.23,1.52-.04,3.02-.78,5.06-1.34.14.36.74,1.26.81,2.19.97,13.12,1.74,26.26,2.82,39.37.65,7.89,1.91,15.73,2.63,23.62.48,5.22.28,10.5.77,15.72,1.02,10.95,2.25,21.89,3.49,32.82.41,3.6,1.15,7.15,1.65,10.74.1.72.06,1.97-.34,2.19-3.17,1.72-1.42,3.89-.56,6.4-3.99.61-7.88,1.5-11.82,1.76-12.62.86-25.25,1.53-37.89,2.19-12.64.67-25.28,1.21-37.91,1.87-5.24.27-10.46.77-15.7,1.05-1.66.09-3.02.49-4.46,1.45-4.39,2.92-8.23,1.69-9.62-3.47-1.14-4.24-1.56-8.72-1.84-13.12-.92-14.22-1.41-28.47-2.49-42.67-.7-9.23-2.18-18.4-3.23-27.61-1.03-9.08-2.13-18.15-2.84-27.26-.31-3.98.26-8.04.43-12.06,2.15-.44,2.09.96,2.03,2.41-.13,3.34-.5,6.7-.29,10.02.38,5.9,1.09,11.77,1.71,17.65.55,5.21,1.13,10.43,1.75,15.63.89,7.47,2.15,14.92,2.68,22.42.98,13.97,1.48,27.97,2.33,41.95.24,4,.85,7.99,1.57,11.93.3,1.63,1.19,3.31,3.62,3.3.07-.6.19-1.09.17-1.58-.24-5.51-.51-11.02-.75-16.53-.62-14.12-1.12-28.25-1.87-42.37-.77-14.52-1.77-29.02-2.68-43.53-.14-2.28-.28-4.56-.44-6.84-.4-6.05-.84-12.09-1.18-18.14-.06-1.05-.48-2.42,1.83-3.46,1.31,22.24,2.96,43.99,4.02,65.79,1.07,22.04,2.19,44.08,3.27,65.58.87-.32,2.16-1.09,3.52-1.25,4.28-.49,8.58-.83,12.88-1.07,5.24-.3,10.5-.42,15.74-.66,10.76-.48,21.52-.97,32.28-1.47,1.07-.05,2.15-.15,3.22-.22,6.85-.46,13.7-.87,20.54-1.39,6.26-.48,12.52-1.1,19.07-1.68-.34-2.66-.72-4.9-.89-7.16-.79-10.61-1.52-21.21-2.26-31.82-.48-6.98-.84-13.97-1.44-20.94-.9-10.45-2.07-20.87-2.93-31.32-.84-10.2-1.41-20.41-2.18-30.61-.17-2.21-.66-4.4-1.04-6.84-9.87.27-19.29.47-28.71.79-16.42.56-32.84,1.17-49.25,1.79-7,.26-13.99.82-20.99.81-6.99-.02-11.45,3.77-15.26,8.92Z"/>
      <path d="M67.17,37.81c1.62.32,2.78.67,3.97.77,3.28.29,5.19,2.3,5.97,5.18.85,3.13-.3,5.96-2.96,7.76-1.85,1.25-4.01,2.14-6.15,2.84-2.53.84-5.17,1.31-7.66,1.92-.34-.29-.71-.45-.71-.62-.07-6.7-3.29-12.67-4.44-19.12-.51-2.86-.44-5.55,1.94-7.32,2.75-2.04,5.94-3.13,9.44-1.66,3.03,1.27,4.06,3.88,2.64,6.88-.51,1.07-1.23,2.05-2.03,3.37ZM61.29,41.23c-.16-.41-.32-.82-.48-1.23,1.06-.95,2.14-1.88,3.17-2.86.97-.92,2.01-1.81,2.78-2.88,1.56-2.18.58-4.56-2-5.16-4.62-1.07-8.55,2.33-7.52,6.93,1.28,5.7,3.1,11.28,4.83,17.42,2.73-.68,5.37-1.08,7.79-2.03,1.54-.61,3.04-1.81,4.07-3.13,2.5-3.2,1.1-6.86-2.9-7.55-1.94-.33-3.99-.04-5.99.06-1.25.06-2.5.28-3.75.43Z"/>
      <path d="M41.68,46.56c-3.6.72-6.9,1.28-10.16,2.04-3.54.82-3.99,1.53-4.06,5.32-.04,2.15,0,4.31-.19,6.45-.11,1.22-.09,2.69-1.85,3.53-.23-.65-.56-1.1-.53-1.53.39-6.01.76-12.03,1.28-18.03.21-2.39.61-4.79,1.18-7.13.67-2.78,2.3-4.88,5.32-5.4,2.93-.5,4.91,1.17,6.34,3.4,1.44,2.25,2.72,4.62,3.84,7.05.7,1.51,1.55,2.46,3.97,2.17-1.04.92-1.57,1.39-2.41,2.13.75,2.01,1.33,4.38,2.49,6.42,1.25,2.2,1.02,3.98-.6,6.07-2.66-3.65-2.65-8.24-4.61-12.49ZM40.72,44.57c-.44-3.7-2.08-6.44-4.13-8.91-2.32-2.79-5.13-2.45-6.68.84-1.56,3.29-2.14,6.81-1.49,10.6,4.1-.84,7.99-1.64,12.3-2.53Z"/>
      <path d="M109.56,44.38c-.72,4.05-2.84,5.97-5.69,7.13-7.05,2.86-15.87-1.44-18.47-8.54-2.62-7.13,2.34-16.05,9.44-17.94,3-.8,5.88-.5,8.56,1.07.45.26.63.98,1.4,2.26-2.51-.7-4.21-1.49-5.94-1.58-1.67-.08-3.53.24-5.04.97-1.64.79-3.2,2.05-4.36,3.45-1.07,1.3-1.77,3.01-2.28,4.66-1.47,4.69.73,9.86,5.11,12.44,5.91,3.49,10.21,2.61,17.26-3.92Z"/>
    </g>
  </g>
</svg>