<?xml version="1.0" encoding="UTF-8"?>
<svg id="_图层_2" data-name="图层_2" xmlns="http://www.w3.org/2000/svg" viewBox="0 0 240.98 230.12">
  <g id="Graphic_Elements">
    <g>
      <path d="M172.39,230.12v-23.61c-5.12-.66-6.6-1.87-6.73-5.42-.1-2.97.68-3.62,5.61-4.64,1.69-6.9,3.29-13.83,5.09-20.7,2.82-10.79,5.9-21.51,8.64-32.31,4.52-17.83,9.78-35.49,12.55-53.73.66-4.36,1.73-8.66,2.74-13.59-16.48.88-32.44,2.85-48.42,4.62-16.02,1.77-31.97,4.03-48.28,7.77.45-1.44.69-2.22.99-3.18-12.22-9.56-24.26-19.5-36.85-28.67-9.23-6.72-19.22-12.41-28.82-18.64-10.15-6.59-20.31-13.18-30.32-19.99-2.75-1.87-5-4.47-7.41-6.81-.52-.5-.74-1.31-1.17-2.13,11.27,1.29,22.22.56,33.17-.29,6.44-.5,12.87-1.07,19.3-1.71,11.24-1.13,22.47-2.35,33.71-3.54,7.36-.78,14.72-1.56,22.09-2.32,4.14-.43,8.28-.91,12.42-1.21.96-.07,2.16.22,2.93.79,10.79,7.9,22.75,13.86,34.31,20.46,10.16,5.8,20.44,11.39,30.57,17.25,15.6,9.03,31.12,18.19,46.66,27.34,1.83,1.08,3.54,2.37,5.83,3.91-12.74,4.14-25.42,4.81-38.55,6.32-3.86,20.28-8.04,40.62-13.62,60.65-5.55,19.91-10.56,39.97-15.96,60.55.82.59,1.84,1.08,2.49,1.87.99,1.21,1.41,2.73.2,4.06-1.25,1.37-.99,2.88-1.01,4.51-.06,6.06-.27,12.11-.54,18.16-.06,1.42-.55,2.82-.84,4.22-.25,0-.5.02-.75.03ZM6.05,12.19c-.16.26-.32.52-.47.77,2.16,1.75,4.19,3.7,6.5,5.21,12.05,7.88,24.17,15.64,36.25,23.47,7.79,5.05,15.83,9.76,23.25,15.3,11.52,8.61,22.64,17.77,33.85,26.79,1.39,1.12,2.64,1.68,4.38,1.28,1.57-.36,3.17-.59,4.77-.85,8.35-1.38,16.68-2.96,25.06-4.06,9.2-1.21,18.47-2,27.71-2.92,17.8-1.78,35.61-3.46,53.4-5.3,5.02-.52,10-1.49,14.99-2.26.06-.29.11-.57.17-.86-1.2-.77-2.37-1.58-3.6-2.29-24.01-13.86-48.01-27.74-72.04-41.56-12.48-7.18-25.39-13.62-37.21-21.91-.82-.57-1.98-.93-2.98-.92-2.42.03-4.84.28-7.24.55-8.28.93-16.54,1.96-24.82,2.86-10.43,1.13-20.87,2.27-31.32,3.23-10.85.99-21.72,1.84-32.59,2.61-6.01.43-12.04.59-18.06.87ZM171.22,199.55c-1.42-.24-3.26-1.4-3.67,1.19-.28,1.75,1.38,3.46,3.04,3.42,1.72-.05,3.57-1.66,3.45-3.19-.14-1.82-1.26-2.11-2.81-1.41Z"/>
      <path d="M45.47,53.99c-6.3,17.79-9.85,35.72-16.83,52.58,1.13-9.53,4.73-18.42,7.15-27.6,2.41-9.19,5.3-18.25,8.03-27.54,3.55,1.1,6.4,2.77,9.07,4.83,9.48,7.32,18.86,14.77,28.5,21.89,7.03,5.19,14.42,9.88,21.6,14.87,1.68,1.16,3.41,1.42,5.35,1.21,12.03-1.32,24.07-2.62,36.11-3.89,7.48-.79,14.97-1.5,22.46-2.29,4.54-.48,9.07-1.13,13.62-1.53,1.52-.13,3.09.3,4.55.47.28,7.57-7.07,46.98-9.82,52.41-.75-1.49-.41-2.69-.19-3.89,2.47-13.47,4.96-26.94,7.38-40.43.35-1.97.4-3.99.62-6.2-2.65,0-5.03-.2-7.37.03-13.12,1.32-26.22,2.77-39.34,4.15-7.35.77-14.71,1.51-22.06,2.26-.27.03-.56-.04-.8.06-5.39,2.1-10.05.07-14.39-2.8-7.63-5.04-15.26-10.1-22.63-15.51-9.11-6.69-17.94-13.75-26.93-20.61-1.15-.87-2.48-1.5-4.08-2.46Z"/>
      <path d="M173.43,144.61c-2.43,1.31-4.8,2.74-7.3,3.89-8.9,4.13-18.28,6.22-28.08,6.61-18.81.75-36.95-2.54-54.62-8.85-12.2-4.36-24.13-9.27-34.85-16.68-8.13-5.62-15.45-12.15-21.77-19.77-.46-.55-.7-1.28-1.05-1.94,1.64-1.01,2.12.24,2.78.97,5.76,6.43,11.95,12.39,18.97,17.47,10.01,7.24,21.04,12.54,32.64,16.56,8.49,2.94,17.14,5.64,25.9,7.58,14.71,3.26,29.67,3.77,44.53,1.03,5.21-.96,10.17-3.34,15.22-5.13,2.37-.84,4.67-1.85,7.01-2.78.21.34.42.69.63,1.03Z"/>
      <path d="M166.48,205.01c-1.45,2.14-2.77,3.5-3.38,5.12-1.22,3.23-2.06,6.6-3.02,9.93-.58,2.01-1.08,4.05-2.29,6.1-.12-.65-.39-1.31-.35-1.95.27-5.28,1.74-10.29,3.77-15.1.77-1.83,1.7-3.96,5.27-4.08Z"/>
      <path d="M170.6,208.06c-1.32,6.32-2.64,12.64-3.96,18.96-.31,0-.62-.02-.93-.03,0-1.32-.16-2.65.03-3.94.55-3.84,1.12-7.69,1.92-11.49.29-1.41,1.23-2.68,1.87-4.02.36.17.72.35,1.08.52Z"/>
    </g>
  </g>
</svg>